<svg width="1333" height="919" viewBox="0 0 1333 919" fill="none" xmlns="http://www.w3.org/2000/svg">
<rect y="2" width="1333" height="917" fill="#2A2859"/>
<ellipse cx="478.132" cy="98.2341" rx="96.132" ry="96.2341" fill="#6FE9FF"/>
<path d="M584.736 396.21V203.742H392.472L392.472 299.976H488.604V396.21H584.736Z" fill="#6FE9FF"/>
<path d="M584.736 12.0636V204.532H777L777 108.298L680.868 108.298V12.0636H584.736Z" fill="#6FE9FF"/>
<path d="M151.041 94.1032L149.282 93.0129C146.601 91.2516 143.753 89.742 140.737 88.4839C139.48 87.9807 138.224 87.4774 136.967 87.0581C133.951 86.0516 130.768 85.2129 127.668 84.7097C126.328 84.542 124.988 84.3742 123.564 84.2065C120.38 83.9549 117.113 83.9549 113.93 84.2065C112.589 84.2903 111.165 84.4581 109.825 84.7097C106.642 85.2129 103.542 85.9678 100.443 87.0581C99.1859 87.4774 97.9294 87.9807 96.6728 88.4839C93.7408 89.742 90.8925 91.2516 88.1281 93.0129L86.3688 94.1032L77.7403 77.5807L79.2482 76.6581C82.1802 74.8129 85.196 73.2194 88.2956 71.8774L89.8873 71.1226L92.9868 77.0774C93.9083 76.742 94.746 76.4065 95.6675 76.071L94.0759 69.5291L95.7513 68.942C99.0184 67.9355 102.286 67.0968 105.636 66.5097L107.396 66.1742L108.987 72.7162L109.49 72.6323C110.244 72.5484 111.082 72.4645 111.836 72.3807V65.671L113.595 65.5871C115.27 65.5032 117.029 65.4194 118.705 65.4194C120.38 65.4194 122.139 65.5032 123.815 65.5871L125.574 65.671V72.3807C126.496 72.4645 127.417 72.5484 128.422 72.7162L130.014 66.1742L131.773 66.5097C135.124 67.0968 138.475 67.9355 141.658 68.942L143.334 69.5291L141.742 76.071C142.664 76.4065 143.501 76.742 144.423 77.0774L147.522 71.1226L149.114 71.8774C152.214 73.3032 155.229 74.8968 158.161 76.6581L159.669 77.5807L151.041 94.1032ZM82.7667 79.0065L87.8767 88.7355C90.2224 87.3097 92.6517 86.1355 95.1649 85.0452H95.2487C96.589 84.4581 97.9294 83.9549 99.2697 83.5355C102.537 82.4452 105.888 81.5226 109.239 81.0194C110.663 80.7678 112.087 80.6 113.595 80.5161C117.029 80.2645 120.464 80.2645 123.899 80.5161C125.323 80.6839 126.831 80.8516 128.255 81.0194C131.606 81.5226 134.957 82.3613 138.224 83.4516C139.564 83.9549 140.904 84.4581 142.245 84.9613C144.758 86.0516 147.187 87.3097 149.617 88.6516L154.727 78.9226C152.968 77.9161 151.125 76.9097 149.282 76.071L146.182 81.942L144.59 81.271L143.92 81.0194C142.328 80.3484 140.653 79.6774 138.978 79.1742L137.302 78.5871L138.894 72.129C136.883 71.542 134.957 71.0387 132.946 70.6194L131.354 77.0774L129.595 76.8258C127.585 76.4903 125.574 76.2387 123.647 76.071L121.888 75.9032V69.2774C119.878 69.1936 117.783 69.1936 115.773 69.2774V75.9032L114.014 76.071C112.673 76.1549 111.417 76.3226 110.16 76.4903C109.49 76.5742 108.736 76.6581 108.066 76.8258L106.307 77.0774L104.715 70.6194C102.704 71.0387 100.694 71.542 98.7671 72.129L100.359 78.5871L98.6833 79.1742C97.0079 79.7613 95.3324 80.3484 93.7408 81.0194L93.0706 81.271L91.4789 81.942L88.3794 76.071C86.3688 76.9097 84.5259 77.9162 82.7667 79.0065Z" fill="#6FE9FF"/>
<path d="M118.705 194.581C89.2171 194.581 65.3421 170.677 65.3421 141.239C65.3421 111.8 89.2171 87.8129 118.621 87.8129C148.025 87.8129 171.984 111.716 171.984 141.155C171.984 155.329 166.371 168.916 156.402 178.981C146.433 188.961 132.779 194.581 118.705 194.581ZM118.705 91.7548C91.3952 91.7548 69.2794 113.897 69.2794 141.155C69.2794 168.413 91.3952 190.639 118.621 190.639C145.931 190.639 168.046 168.497 168.046 141.239C168.046 128.155 162.853 115.574 153.554 106.265C144.339 96.9548 131.773 91.671 118.705 91.7548Z" fill="#6FE9FF"/>
<path d="M108.401 125.974C104.212 120.355 105.385 112.303 110.998 108.11C116.611 103.916 124.653 105.09 128.841 110.71C132.192 115.239 132.192 121.445 128.841 125.974L131.689 128.071C133.784 125.303 134.957 121.865 134.957 118.342C134.957 109.368 127.668 102.071 118.705 102.071C109.741 102.071 102.453 109.368 102.453 118.342C102.453 121.865 103.626 125.303 105.72 128.071L108.401 125.974Z" fill="#6FE9FF"/>
<path d="M118.621 129.832C122.139 129.832 124.988 126.981 124.988 123.458V122.787H127.082V118.761C127.082 114.065 123.312 110.29 118.621 110.29C113.93 110.29 110.16 114.065 110.16 118.761V122.787H112.254V123.458C112.254 126.981 115.103 129.832 118.621 129.832ZM113.679 118.845C113.679 116.077 115.857 113.897 118.621 113.897C121.386 113.897 123.564 116.077 123.564 118.845V122.871H122.056V123.542C122.139 125.471 120.715 127.065 118.789 127.148C116.862 127.232 115.27 125.806 115.186 123.877C115.186 123.794 115.186 123.626 115.186 123.542V122.871H113.679V118.845Z" fill="#6FE9FF"/>
<path d="M87.1228 143.587H82.264V148.535H87.1228V143.587Z" fill="#6FE9FF"/>
<path d="M158.078 139.813V142.413H160.591L153.805 149.206V137.297L155.564 139.058L157.407 137.213L152.465 132.265L147.522 137.213L149.365 139.058L151.125 137.297V149.123L144.339 142.329H146.768V139.729H139.815V146.774H142.412V144.258L147.69 149.626H136.967L135.878 148.619L134.957 139.897C134.873 139.394 134.37 134.948 130.684 133.019H130.6L126.831 131.51L126.244 131.258L125.658 131.426C123.312 132.013 120.967 132.265 118.621 132.181C116.275 132.265 113.846 132.013 111.584 131.426L110.998 131.258L106.642 132.935H106.558C102.872 134.865 102.286 139.31 102.286 139.813L101.28 148.871L100.443 149.542H96.7566C97.0916 148.368 97.2592 147.194 97.2592 146.019C97.2592 139.058 91.5627 133.439 84.6096 133.523C77.6566 133.523 72.0438 139.226 72.1276 146.187C72.1276 152.394 76.6513 157.594 82.7667 158.6H82.9342C83.2693 158.684 83.6044 158.684 83.9395 158.684L100.275 160.361C99.6886 165.897 98.5995 171.348 97.0079 176.716L98.6833 177.303L100.359 177.806C102.034 172.187 103.207 166.4 103.793 160.613L107.479 157.51L106.893 180.323L108.401 180.574C115.27 181.748 122.307 181.748 129.26 180.574L130.768 180.323L130.182 157.594L133.868 160.697C134.454 166.484 135.627 172.271 137.302 177.89L140.653 176.8C139.061 171.432 137.972 165.981 137.386 160.445L153.805 158.935V153.232L162.518 144.51V147.026H165.114V140.065L158.078 139.813ZM118.621 135.787C121.134 135.871 123.647 135.535 126.161 135.032L129.176 136.206C131.187 137.297 131.522 140.232 131.522 140.232L132.276 147.11H128.003C126.328 147.11 124.569 146.69 123.145 145.768C122.056 144.929 121.05 144.006 120.213 142.916L114.181 135.535C115.689 135.703 117.197 135.787 118.621 135.787ZM84.6934 155.161H84.2745L83.3531 155.077C78.4105 154.323 74.9759 149.626 75.8136 144.677C76.5675 139.729 81.2588 136.29 86.2013 137.129C91.1438 137.884 94.5785 142.581 93.7408 147.529C92.9868 151.89 89.1333 155.161 84.6934 155.161ZM107.563 152.729L102.537 157.006L92.4842 156C93.4895 155.161 94.4109 154.239 95.1649 153.148H101.783L107.647 148.2L107.563 152.729ZM107.814 143.503L105.218 145.684L105.804 140.316V140.232C105.804 140.232 106.055 137.297 108.15 136.206L109.825 135.535L112.841 139.226L107.814 143.503ZM118.705 177.89C115.94 177.89 113.176 177.723 110.495 177.303L110.663 169.839L111.249 145.181L115.019 141.994L117.532 145.097C118.621 146.523 119.961 147.781 121.386 148.787C122.893 149.71 124.653 150.297 126.412 150.548L127.082 177.303C124.318 177.639 121.469 177.806 118.705 177.89ZM150.287 155.581L135.124 157.006L127.585 150.632H133.114L135.962 153.148H150.371L150.287 155.581Z" fill="#6FE9FF"/>
<path d="M220.729 160.186C230.58 160.186 238.616 152.251 238.616 139.027C238.616 126.243 230.58 118.418 220.729 118.418C210.822 118.418 202.786 126.243 202.786 139.027C202.786 152.251 210.822 160.186 220.729 160.186ZM220.729 155.558C213.794 155.558 207.905 150.047 207.905 139.027C207.905 128.006 213.574 123.047 220.729 123.047C227.828 123.047 233.497 128.006 233.497 139.027C233.497 150.047 227.608 155.558 220.729 155.558Z" fill="#6FE9FF"/>
<path d="M245.112 138.255C245.112 142.278 248.029 145.033 253.423 146.135L258.432 147.127C261.789 147.843 263.22 149.166 263.22 151.59C263.22 154.345 260.413 156.164 256.23 156.164C252.102 156.164 249.185 154.566 247.699 151.59L244.067 153.519C246.158 157.817 250.396 160.131 256.34 160.131C263.165 160.131 267.788 156.549 267.788 151.315C267.788 146.906 264.761 144.096 258.432 142.829L254.194 142.002C251.056 141.341 249.681 140.074 249.681 137.925C249.681 135.445 252.157 133.957 255.9 133.957C259.477 133.957 262.119 135.39 263.33 137.98L266.907 136.161C265.366 132.304 261.404 129.935 256.01 129.935C249.57 129.935 245.112 133.516 245.112 138.255Z" fill="#6FE9FF"/>
<path d="M285.263 159.58V155.502C284.657 155.668 284.052 155.723 283.502 155.723C281.19 155.723 279.814 154.511 279.814 151.976V118.914H275.081V152.196C275.081 156.935 277.448 159.966 282.401 159.966C283.392 159.966 284.272 159.801 285.263 159.58Z" fill="#6FE9FF"/>
<path d="M303.338 160.186C310.658 160.186 316.657 154.235 316.657 144.978C316.657 135.886 310.713 129.935 303.338 129.935C295.908 129.935 289.964 135.886 289.964 144.978C289.964 154.235 295.963 160.186 303.338 160.186ZM303.338 156.054C298.66 156.054 294.862 152.417 294.862 144.978C294.862 137.539 298.715 134.067 303.338 134.067C307.906 134.067 311.759 137.539 311.759 144.978C311.759 152.417 307.961 156.054 303.338 156.054Z" fill="#6FE9FF"/>
</svg>
