<svg width="3400" height="267" viewBox="0 0 3400 267" fill="none" xmlns="http://www.w3.org/2000/svg">
<rect width="3400" height="267" fill="#2A2859"/>
<ellipse cx="444.98" cy="65.0494" rx="64.9804" ry="65.0494" fill="#6FE9FF"/>
<path d="M517.039 266.466V136.367H387.078L387.078 201.417H452.059V266.466H517.039Z" fill="#6FE9FF"/>
<path d="M517.039 6.80249V136.901H647L647 71.8519L582.02 71.8519V6.80249H517.039Z" fill="#6FE9FF"/>
<path d="M151.041 101.103L149.282 100.013C146.601 98.2516 143.753 96.7419 140.737 95.4838C139.48 94.9806 138.224 94.4774 136.967 94.058C133.951 93.0516 130.768 92.2129 127.668 91.7096C126.328 91.5419 124.988 91.3742 123.564 91.2064C120.38 90.9548 117.113 90.9548 113.93 91.2064C112.589 91.2903 111.165 91.458 109.825 91.7096C106.642 92.2129 103.542 92.9677 100.442 94.058C99.1859 94.4774 97.9293 94.9806 96.6727 95.4838C93.7407 96.7419 90.8925 98.2516 88.128 100.013L86.3688 101.103L77.7403 84.5806L79.2482 83.658C82.1802 81.8129 85.196 80.2193 88.2955 78.8774L89.8872 78.1225L92.9868 84.0774C93.9083 83.7419 94.746 83.4064 95.6675 83.0709L94.0758 76.529L95.7512 75.9419C99.0183 74.9354 102.285 74.0967 105.636 73.5096L107.396 73.1742L108.987 79.7161L109.49 79.6322C110.244 79.5483 111.082 79.4645 111.835 79.3806V72.6709L113.595 72.5871C115.27 72.5032 117.029 72.4193 118.705 72.4193C120.38 72.4193 122.139 72.5032 123.815 72.5871L125.574 72.6709V79.3806C126.496 79.4645 127.417 79.5483 128.422 79.7161L130.014 73.1742L131.773 73.5096C135.124 74.0967 138.475 74.9354 141.658 75.9419L143.334 76.529L141.742 83.0709C142.664 83.4064 143.501 83.7419 144.423 84.0774L147.522 78.1225L149.114 78.8774C152.214 80.3032 155.229 81.8967 158.161 83.658L159.669 84.5806L151.041 101.103ZM82.7666 86.0064L87.8767 95.7354C90.2223 94.3096 92.6517 93.1354 95.1648 92.0451H95.2486C96.589 91.458 97.9293 90.9548 99.2697 90.5354C102.537 89.4451 105.888 88.5225 109.239 88.0193C110.663 87.7677 112.087 87.6 113.595 87.5161C117.029 87.2645 120.464 87.2645 123.899 87.5161C125.323 87.6838 126.831 87.8516 128.255 88.0193C131.606 88.5225 134.957 89.3612 138.224 90.4516C139.564 90.9548 140.904 91.458 142.245 91.9612C144.758 93.0516 147.187 94.3096 149.617 95.6516L154.727 85.9225C152.967 84.9161 151.124 83.9096 149.282 83.0709L146.182 88.9419L144.59 88.2709L143.92 88.0193C142.328 87.3483 140.653 86.6774 138.978 86.1742L137.302 85.5871L138.894 79.129C136.883 78.5419 134.957 78.0387 132.946 77.6193L131.354 84.0774L129.595 83.8258C127.585 83.4903 125.574 83.2387 123.647 83.0709L121.888 82.9032V76.2774C119.878 76.1935 117.783 76.1935 115.773 76.2774V82.9032L114.014 83.0709C112.673 83.1548 111.417 83.3225 110.16 83.4903C109.49 83.5742 108.736 83.658 108.066 83.8258L106.307 84.0774L104.715 77.6193C102.704 78.0387 100.694 78.5419 98.767 79.129L100.359 85.5871L98.6833 86.1742C97.0078 86.7612 95.3324 87.3483 93.7407 88.0193L93.0705 88.2709L91.4789 88.9419L88.3793 83.0709C86.3688 83.9096 84.5258 84.9161 82.7666 86.0064Z" fill="#6FE9FF"/>
<path d="M118.705 201.581C89.217 201.581 65.342 177.677 65.342 148.239C65.342 118.8 89.217 94.8128 118.621 94.8128C148.025 94.8128 171.984 118.716 171.984 148.155C171.984 162.329 166.371 175.916 156.402 185.981C146.433 195.961 132.778 201.581 118.705 201.581ZM118.705 98.7548C91.3951 98.7548 69.2793 120.897 69.2793 148.155C69.2793 175.413 91.3951 197.639 118.621 197.639C145.931 197.639 168.046 175.497 168.046 148.239C168.046 135.155 162.853 122.574 153.554 113.264C144.339 103.955 131.773 98.6709 118.705 98.7548Z" fill="#6FE9FF"/>
<path d="M108.401 132.974C104.212 127.355 105.385 119.303 110.998 115.11C116.61 110.916 124.653 112.09 128.841 117.71C132.192 122.239 132.192 128.445 128.841 132.974L131.689 135.071C133.784 132.303 134.956 128.864 134.956 125.342C134.956 116.368 127.668 109.071 118.705 109.071C109.741 109.071 102.453 116.368 102.453 125.342C102.453 128.864 103.626 132.303 105.72 135.071L108.401 132.974Z" fill="#6FE9FF"/>
<path d="M118.621 136.832C122.139 136.832 124.988 133.981 124.988 130.458V129.787H127.082V125.761C127.082 121.064 123.312 117.29 118.621 117.29C113.93 117.29 110.16 121.064 110.16 125.761V129.787H112.254V130.458C112.254 133.981 115.103 136.832 118.621 136.832ZM113.678 125.845C113.678 123.077 115.857 120.897 118.621 120.897C121.385 120.897 123.564 123.077 123.564 125.845V129.871H122.056V130.542C122.139 132.471 120.715 134.064 118.789 134.148C116.862 134.232 115.27 132.806 115.186 130.877C115.186 130.794 115.186 130.626 115.186 130.542V129.871H113.678V125.845Z" fill="#6FE9FF"/>
<path d="M87.1227 150.587H82.264V155.535H87.1227V150.587Z" fill="#6FE9FF"/>
<path d="M158.078 146.813V149.413H160.591L153.805 156.206V144.297L155.564 146.058L157.407 144.213L152.465 139.264L147.522 144.213L149.365 146.058L151.124 144.297V156.123L144.339 149.329H146.768V146.729H139.815V153.774H142.412V151.258L147.69 156.626H136.967L135.878 155.619L134.956 146.897C134.873 146.393 134.37 141.948 130.684 140.019H130.6L126.831 138.51L126.244 138.258L125.658 138.426C123.312 139.013 120.967 139.264 118.621 139.181C116.275 139.264 113.846 139.013 111.584 138.426L110.998 138.258L106.642 139.935H106.558C102.872 141.864 102.285 146.31 102.285 146.813L101.28 155.871L100.442 156.542H96.7565C97.0916 155.368 97.2591 154.193 97.2591 153.019C97.2591 146.058 91.5626 140.439 84.6096 140.523C77.6565 140.523 72.0438 146.226 72.1276 153.187C72.1276 159.393 76.6512 164.593 82.7666 165.6H82.9341C83.2692 165.684 83.6043 165.684 83.9394 165.684L100.275 167.361C99.6885 172.897 98.5995 178.348 97.0078 183.716L98.6833 184.303L100.359 184.806C102.034 179.187 103.207 173.4 103.793 167.613L107.479 164.51L106.893 187.323L108.401 187.574C115.27 188.748 122.307 188.748 129.26 187.574L130.768 187.323L130.182 164.593L133.867 167.697C134.454 173.484 135.627 179.271 137.302 184.89L140.653 183.8C139.061 178.432 137.972 172.981 137.386 167.445L153.805 165.935V160.232L162.517 151.51V154.026H165.114V147.064L158.078 146.813ZM118.621 142.787C121.134 142.871 123.647 142.535 126.16 142.032L129.176 143.206C131.187 144.297 131.522 147.232 131.522 147.232L132.276 154.11H128.003C126.328 154.11 124.569 153.69 123.145 152.768C122.056 151.929 121.05 151.006 120.213 149.916L114.181 142.535C115.689 142.703 117.197 142.787 118.621 142.787ZM84.6933 162.161H84.2745L83.353 162.077C78.4104 161.323 74.9758 156.626 75.8135 151.677C76.5675 146.729 81.2587 143.29 86.2012 144.129C91.1438 144.884 94.5784 149.581 93.7407 154.529C92.9868 158.89 89.1333 162.161 84.6933 162.161ZM107.563 159.729L102.537 164.006L92.4841 163C93.4894 162.161 94.4109 161.239 95.1648 160.148H101.783L107.647 155.2L107.563 159.729ZM107.814 150.503L105.217 152.684L105.804 147.316V147.232C105.804 147.232 106.055 144.297 108.149 143.206L109.825 142.535L112.841 146.226L107.814 150.503ZM118.705 184.89C115.94 184.89 113.176 184.723 110.495 184.303L110.663 176.839L111.249 152.181L115.019 148.993L117.532 152.097C118.621 153.523 119.961 154.781 121.385 155.787C122.893 156.71 124.653 157.297 126.412 157.548L127.082 184.303C124.317 184.639 121.469 184.806 118.705 184.89ZM150.287 162.581L135.124 164.006L127.585 157.632H133.114L135.962 160.148H150.371L150.287 162.581Z" fill="#6FE9FF"/>
<path d="M220.728 167.186C230.58 167.186 238.616 159.251 238.616 146.027C238.616 133.243 230.58 125.418 220.728 125.418C210.822 125.418 202.786 133.243 202.786 146.027C202.786 159.251 210.822 167.186 220.728 167.186ZM220.728 162.558C213.794 162.558 207.905 157.047 207.905 146.027C207.905 135.006 213.574 130.047 220.728 130.047C227.828 130.047 233.497 135.006 233.497 146.027C233.497 157.047 227.608 162.558 220.728 162.558Z" fill="#6FE9FF"/>
<path d="M245.112 145.255C245.112 149.278 248.029 152.033 253.423 153.135L258.432 154.127C261.789 154.843 263.22 156.166 263.22 158.59C263.22 161.345 260.413 163.164 256.23 163.164C252.102 163.164 249.185 161.566 247.699 158.59L244.067 160.519C246.158 164.817 250.396 167.131 256.34 167.131C263.165 167.131 267.788 163.549 267.788 158.315C267.788 153.906 264.761 151.096 258.432 149.829L254.194 149.002C251.056 148.341 249.68 147.074 249.68 144.925C249.68 142.445 252.157 140.957 255.9 140.957C259.477 140.957 262.119 142.39 263.33 144.98L266.907 143.161C265.366 139.304 261.404 136.935 256.01 136.935C249.57 136.935 245.112 140.516 245.112 145.255Z" fill="#6FE9FF"/>
<path d="M285.263 166.58V162.502C284.657 162.668 284.052 162.723 283.502 162.723C281.19 162.723 279.814 161.511 279.814 158.976V125.914H275.081V159.196C275.081 163.935 277.447 166.966 282.401 166.966C283.392 166.966 284.272 166.8 285.263 166.58Z" fill="#6FE9FF"/>
<path d="M303.338 167.186C310.658 167.186 316.657 161.235 316.657 151.978C316.657 142.886 310.713 136.935 303.338 136.935C295.908 136.935 289.964 142.886 289.964 151.978C289.964 161.235 295.963 167.186 303.338 167.186ZM303.338 163.053C298.66 163.053 294.862 159.417 294.862 151.978C294.862 144.539 298.715 141.067 303.338 141.067C307.906 141.067 311.759 144.539 311.759 151.978C311.759 159.417 307.961 163.053 303.338 163.053Z" fill="#6FE9FF"/>
</svg>
