<svg width="3400" height="267" viewBox="0 0 3400 267" fill="none" xmlns="http://www.w3.org/2000/svg">
<rect width="3400" height="267" fill="#2A2859"/>
<path d="M2909.04 101.103L2907.28 100.013C2904.6 98.2516 2901.75 96.742 2898.74 95.4839C2897.48 94.9807 2896.22 94.4774 2894.97 94.0581C2891.95 93.0516 2888.77 92.2129 2885.67 91.7097C2884.33 91.542 2882.99 91.3742 2881.56 91.2065C2878.38 90.9549 2875.11 90.9549 2871.93 91.2065C2870.59 91.2903 2869.17 91.4581 2867.82 91.7097C2864.64 92.2129 2861.54 92.9678 2858.44 94.0581C2857.19 94.4774 2855.93 94.9807 2854.67 95.4839C2851.74 96.742 2848.89 98.2516 2846.13 100.013L2844.37 101.103L2835.74 84.5807L2837.25 83.6581C2840.18 81.8129 2843.2 80.2194 2846.3 78.8774L2847.89 78.1226L2850.99 84.0774C2851.91 83.742 2852.75 83.4065 2853.67 83.071L2852.08 76.5291L2853.75 75.942C2857.02 74.9355 2860.29 74.0968 2863.64 73.5097L2865.4 73.1742L2866.99 79.7162L2867.49 79.6323C2868.24 79.5484 2869.08 79.4645 2869.84 79.3807V72.671L2871.59 72.5871C2873.27 72.5032 2875.03 72.4194 2876.7 72.4194C2878.38 72.4194 2880.14 72.5032 2881.81 72.5871L2883.57 72.671V79.3807C2884.5 79.4645 2885.42 79.5484 2886.42 79.7162L2888.01 73.1742L2889.77 73.5097C2893.12 74.0968 2896.47 74.9355 2899.66 75.942L2901.33 76.5291L2899.74 83.071C2900.66 83.4065 2901.5 83.742 2902.42 84.0774L2905.52 78.1226L2907.11 78.8774C2910.21 80.3032 2913.23 81.8968 2916.16 83.6581L2917.67 84.5807L2909.04 101.103ZM2840.77 86.0065L2845.88 95.7355C2848.22 94.3097 2850.65 93.1355 2853.16 92.0452H2853.25C2854.59 91.4581 2855.93 90.9549 2857.27 90.5355C2860.54 89.4452 2863.89 88.5226 2867.24 88.0194C2868.66 87.7678 2870.09 87.6 2871.59 87.5161C2875.03 87.2645 2878.46 87.2645 2881.9 87.5161C2883.32 87.6839 2884.83 87.8516 2886.25 88.0194C2889.61 88.5226 2892.96 89.3613 2896.22 90.4516C2897.56 90.9549 2898.9 91.4581 2900.24 91.9613C2902.76 93.0516 2905.19 94.3097 2907.62 95.6516L2912.73 85.9226C2910.97 84.9161 2909.12 83.9097 2907.28 83.071L2904.18 88.942L2902.59 88.271L2901.92 88.0194C2900.33 87.3484 2898.65 86.6774 2896.98 86.1742L2895.3 85.5871L2896.89 79.129C2894.88 78.542 2892.96 78.0387 2890.95 77.6194L2889.35 84.0774L2887.6 83.8258C2885.58 83.4903 2883.57 83.2387 2881.65 83.071L2879.89 82.9032V76.2774C2877.88 76.1936 2875.78 76.1936 2873.77 76.2774V82.9032L2872.01 83.071C2870.67 83.1549 2869.42 83.3226 2868.16 83.4903C2867.49 83.5742 2866.74 83.6581 2866.07 83.8258L2864.31 84.0774L2862.71 77.6194C2860.7 78.0387 2858.69 78.542 2856.77 79.129L2858.36 85.5871L2856.68 86.1742C2855.01 86.7613 2853.33 87.3484 2851.74 88.0194L2851.07 88.271L2849.48 88.942L2846.38 83.071C2844.37 83.9097 2842.53 84.9162 2840.77 86.0065Z" fill="#6FE9FF"/>
<path d="M2876.7 201.581C2847.22 201.581 2823.34 177.677 2823.34 148.239C2823.34 118.8 2847.22 94.8129 2876.62 94.8129C2906.02 94.8129 2929.98 118.716 2929.98 148.155C2929.98 162.329 2924.37 175.916 2914.4 185.981C2904.43 195.961 2890.78 201.581 2876.7 201.581ZM2876.7 98.7548C2849.4 98.7548 2827.28 120.897 2827.28 148.155C2827.28 175.413 2849.4 197.639 2876.62 197.639C2903.93 197.639 2926.05 175.497 2926.05 148.239C2926.05 135.155 2920.85 122.574 2911.55 113.265C2902.34 103.955 2889.77 98.671 2876.7 98.7548Z" fill="#6FE9FF"/>
<path d="M2866.4 132.974C2862.21 127.355 2863.39 119.303 2869 115.11C2874.61 110.916 2882.65 112.09 2886.84 117.71C2890.19 122.239 2890.19 128.445 2886.84 132.974L2889.69 135.071C2891.78 132.303 2892.96 128.865 2892.96 125.342C2892.96 116.368 2885.67 109.071 2876.7 109.071C2867.74 109.071 2860.45 116.368 2860.45 125.342C2860.45 128.865 2861.63 132.303 2863.72 135.071L2866.4 132.974Z" fill="#6FE9FF"/>
<path d="M2876.62 136.832C2880.14 136.832 2882.99 133.981 2882.99 130.458V129.787H2885.08V125.761C2885.08 121.065 2881.31 117.29 2876.62 117.29C2871.93 117.29 2868.16 121.065 2868.16 125.761V129.787H2870.25V130.458C2870.25 133.981 2873.1 136.832 2876.62 136.832ZM2871.68 125.845C2871.68 123.077 2873.86 120.897 2876.62 120.897C2879.39 120.897 2881.56 123.077 2881.56 125.845V129.871H2880.06V130.542C2880.14 132.471 2878.72 134.065 2876.79 134.148C2874.86 134.232 2873.27 132.806 2873.19 130.877C2873.19 130.794 2873.19 130.626 2873.19 130.542V129.871H2871.68V125.845Z" fill="#6FE9FF"/>
<path d="M2845.12 150.587H2840.26V155.535H2845.12V150.587Z" fill="#6FE9FF"/>
<path d="M2916.08 146.813V149.413H2918.59L2911.81 156.206V144.297L2913.56 146.058L2915.41 144.213L2910.46 139.265L2905.52 144.213L2907.37 146.058L2909.12 144.297V156.123L2902.34 149.329H2904.77V146.729H2897.82V153.774H2900.41V151.258L2905.69 156.626H2894.97L2893.88 155.619L2892.96 146.897C2892.87 146.394 2892.37 141.948 2888.68 140.019H2888.6L2884.83 138.51L2884.24 138.258L2883.66 138.426C2881.31 139.013 2878.97 139.265 2876.62 139.181C2874.28 139.265 2871.85 139.013 2869.58 138.426L2869 138.258L2864.64 139.935H2864.56C2860.87 141.865 2860.29 146.31 2860.29 146.813L2859.28 155.871L2858.44 156.542H2854.76C2855.09 155.368 2855.26 154.194 2855.26 153.019C2855.26 146.058 2849.56 140.439 2842.61 140.523C2835.66 140.523 2830.04 146.226 2830.13 153.187C2830.13 159.394 2834.65 164.594 2840.77 165.6H2840.93C2841.27 165.684 2841.6 165.684 2841.94 165.684L2858.27 167.361C2857.69 172.897 2856.6 178.348 2855.01 183.716L2856.68 184.303L2858.36 184.806C2860.03 179.187 2861.21 173.4 2861.79 167.613L2865.48 164.51L2864.89 187.323L2866.4 187.574C2873.27 188.748 2880.31 188.748 2887.26 187.574L2888.77 187.323L2888.18 164.594L2891.87 167.697C2892.45 173.484 2893.63 179.271 2895.3 184.89L2898.65 183.8C2897.06 178.432 2895.97 172.981 2895.39 167.445L2911.81 165.935V160.232L2920.52 151.51V154.026H2923.11V147.065L2916.08 146.813ZM2876.62 142.787C2879.13 142.871 2881.65 142.535 2884.16 142.032L2887.18 143.206C2889.19 144.297 2889.52 147.232 2889.52 147.232L2890.28 154.11H2886C2884.33 154.11 2882.57 153.69 2881.14 152.768C2880.06 151.929 2879.05 151.006 2878.21 149.916L2872.18 142.535C2873.69 142.703 2875.2 142.787 2876.62 142.787ZM2842.69 162.161H2842.27L2841.35 162.077C2836.41 161.323 2832.98 156.626 2833.81 151.677C2834.57 146.729 2839.26 143.29 2844.2 144.129C2849.14 144.884 2852.58 149.581 2851.74 154.529C2850.99 158.89 2847.13 162.161 2842.69 162.161ZM2865.56 159.729L2860.54 164.006L2850.48 163C2851.49 162.161 2852.41 161.239 2853.16 160.148H2859.78L2865.65 155.2L2865.56 159.729ZM2865.81 150.503L2863.22 152.684L2863.8 147.316V147.232C2863.8 147.232 2864.06 144.297 2866.15 143.206L2867.82 142.535L2870.84 146.226L2865.81 150.503ZM2876.7 184.89C2873.94 184.89 2871.18 184.723 2868.5 184.303L2868.66 176.839L2869.25 152.181L2873.02 148.994L2875.53 152.097C2876.62 153.523 2877.96 154.781 2879.39 155.787C2880.89 156.71 2882.65 157.297 2884.41 157.548L2885.08 184.303C2882.32 184.639 2879.47 184.806 2876.7 184.89ZM2908.29 162.581L2893.12 164.006L2885.58 157.632H2891.11L2893.96 160.148H2908.37L2908.29 162.581Z" fill="#6FE9FF"/>
<path d="M2978.73 167.186C2988.58 167.186 2996.62 159.251 2996.62 146.027C2996.62 133.243 2988.58 125.418 2978.73 125.418C2968.82 125.418 2960.79 133.243 2960.79 146.027C2960.79 159.251 2968.82 167.186 2978.73 167.186ZM2978.73 162.558C2971.79 162.558 2965.9 157.047 2965.9 146.027C2965.9 135.006 2971.57 130.047 2978.73 130.047C2985.83 130.047 2991.5 135.006 2991.5 146.027C2991.5 157.047 2985.61 162.558 2978.73 162.558Z" fill="#6FE9FF"/>
<path d="M3003.11 145.255C3003.11 149.278 3006.03 152.033 3011.42 153.135L3016.43 154.127C3019.79 154.843 3021.22 156.166 3021.22 158.59C3021.22 161.345 3018.41 163.164 3014.23 163.164C3010.1 163.164 3007.19 161.566 3005.7 158.59L3002.07 160.519C3004.16 164.817 3008.4 167.131 3014.34 167.131C3021.16 167.131 3025.79 163.549 3025.79 158.315C3025.79 153.906 3022.76 151.096 3016.43 149.829L3012.19 149.002C3009.06 148.341 3007.68 147.074 3007.68 144.925C3007.68 142.445 3010.16 140.957 3013.9 140.957C3017.48 140.957 3020.12 142.39 3021.33 144.98L3024.91 143.161C3023.37 139.304 3019.4 136.935 3014.01 136.935C3007.57 136.935 3003.11 140.516 3003.11 145.255Z" fill="#6FE9FF"/>
<path d="M3043.26 166.58V162.502C3042.66 162.668 3042.05 162.723 3041.5 162.723C3039.19 162.723 3037.81 161.511 3037.81 158.976V125.914H3033.08V159.196C3033.08 163.935 3035.45 166.966 3040.4 166.966C3041.39 166.966 3042.27 166.801 3043.26 166.58Z" fill="#6FE9FF"/>
<path d="M3061.34 167.186C3068.66 167.186 3074.66 161.235 3074.66 151.978C3074.66 142.886 3068.71 136.935 3061.34 136.935C3053.91 136.935 3047.96 142.886 3047.96 151.978C3047.96 161.235 3053.96 167.186 3061.34 167.186ZM3061.34 163.054C3056.66 163.054 3052.86 159.417 3052.86 151.978C3052.86 144.539 3056.71 141.067 3061.34 141.067C3065.91 141.067 3069.76 144.539 3069.76 151.978C3069.76 159.417 3065.96 163.054 3061.34 163.054Z" fill="#6FE9FF"/>
<ellipse cx="3197.98" cy="65.0494" rx="64.9804" ry="65.0494" fill="#6FE9FF"/>
<path d="M3270.04 266.466V136.367H3140.08L3140.08 201.417H3205.06V266.466H3270.04Z" fill="#6FE9FF"/>
<path d="M3270.04 6.80249V136.901H3400L3400 71.8519L3335.02 71.8519V6.80249H3270.04Z" fill="#6FE9FF"/>
</svg>
