0<svg width="2048" height="1436" viewBox="0 0 2048 1436" fill="none" xmlns="http://www.w3.org/2000/svg">
<rect y="0.000854492" width="2048" height="1436" fill="#2A2859"/>
<circle cx="1334.5" cy="723.5" r="229.5" fill="#6FE9FF"/>
<path d="M1589 1434.12V975.116H1130L1130 1204.62H1359.5V1434.12H1589Z" fill="#6FE9FF"/>
<path d="M1589 518V977H2048L2048 747.5H1818.5V518H1589Z" fill="#6FE9FF"/>
<path d="M300.5 187.121L297 184.953C291.667 181.45 286 178.448 280 175.947C277.5 174.946 275 173.945 272.5 173.112C266.5 171.11 260.167 169.443 254 168.442C251.333 168.108 248.667 167.775 245.833 167.441C239.5 166.941 233 166.941 226.667 167.441C224 167.608 221.167 167.942 218.5 168.442C212.167 169.443 206 170.944 199.833 173.112C197.333 173.945 194.833 174.946 192.333 175.947C186.5 178.448 180.833 181.45 175.333 184.953L171.833 187.121L154.667 154.266L157.667 152.432C163.5 148.763 169.5 145.594 175.667 142.925L178.833 141.425L185 153.265C186.833 152.598 188.5 151.931 190.333 151.264L187.167 138.256L190.5 137.088C197 135.087 203.5 133.419 210.167 132.252L213.667 131.585L216.833 144.593L217.833 144.426C219.333 144.26 221 144.093 222.5 143.926V130.584L226 130.417C229.333 130.251 232.833 130.084 236.167 130.084C239.5 130.084 243 130.251 246.333 130.417L249.833 130.584V143.926C251.667 144.093 253.5 144.26 255.5 144.593L258.667 131.585L262.167 132.252C268.833 133.419 275.5 135.087 281.833 137.088L285.167 138.256L282 151.264C283.833 151.931 285.5 152.598 287.333 153.265L293.5 141.425L296.667 142.925C302.833 145.761 308.833 148.929 314.667 152.432L317.667 154.266L300.5 187.121ZM164.667 157.101L174.833 176.447C179.5 173.612 184.333 171.277 189.333 169.109H189.5C192.167 167.942 194.833 166.941 197.5 166.107C204 163.939 210.667 162.105 217.333 161.104C220.167 160.604 223 160.27 226 160.103C232.833 159.603 239.667 159.603 246.5 160.103C249.333 160.437 252.333 160.77 255.167 161.104C261.833 162.105 268.5 163.772 275 165.94C277.667 166.941 280.333 167.942 283 168.942C288 171.11 292.833 173.612 297.667 176.28L307.833 156.935C304.333 154.933 300.667 152.932 297 151.264L290.833 162.938L287.667 161.604L286.333 161.104C283.167 159.77 279.833 158.435 276.5 157.435L273.167 156.267L276.333 143.426C272.333 142.258 268.5 141.258 264.5 140.424L261.333 153.265L257.833 152.765C253.833 152.098 249.833 151.598 246 151.264L242.5 150.931V137.755C238.5 137.589 234.333 137.589 230.333 137.755V150.931L226.833 151.264C224.167 151.431 221.667 151.765 219.167 152.098C217.833 152.265 216.333 152.432 215 152.765L211.5 153.265L208.333 140.424C204.333 141.258 200.333 142.258 196.5 143.426L199.667 156.267L196.333 157.435C193 158.602 189.667 159.77 186.5 161.104L185.167 161.604L182 162.938L175.833 151.264C171.833 152.932 168.167 154.933 164.667 157.101Z" fill="#6FE9FF"/>
<path d="M236.167 386.916C177.5 386.916 130 339.385 130 280.848C130 222.31 177.5 174.613 236 174.613C294.5 174.613 342.167 222.143 342.167 280.681C342.167 308.866 331 335.883 311.167 355.896C291.333 375.742 264.167 386.916 236.167 386.916ZM236.167 182.451C181.833 182.451 137.833 226.479 137.833 280.681C137.833 334.883 181.833 379.078 236 379.078C290.333 379.078 334.333 335.049 334.333 280.848C334.333 254.831 324 229.815 305.5 211.303C287.167 192.791 262.167 182.284 236.167 182.451Z" fill="#6FE9FF"/>
<path d="M215.667 250.495C207.333 239.321 209.667 223.311 220.833 214.972C232 206.633 248 208.968 256.333 220.142C263 229.148 263 241.489 256.333 250.495L262 254.664C266.167 249.161 268.5 242.323 268.5 235.318C268.5 217.473 254 202.964 236.167 202.964C218.333 202.964 203.833 217.473 203.833 235.318C203.833 242.323 206.167 249.161 210.333 254.664L215.667 250.495Z" fill="#6FE9FF"/>
<path d="M236 258.166C243 258.166 248.667 252.496 248.667 245.492V244.157H252.833V236.152C252.833 226.813 245.333 219.308 236 219.308C226.667 219.308 219.167 226.813 219.167 236.152V244.157H223.333V245.492C223.333 252.496 229 258.166 236 258.166ZM226.167 236.319C226.167 230.815 230.5 226.479 236 226.479C241.5 226.479 245.833 230.815 245.833 236.319V244.324H242.833V245.658C243 249.494 240.167 252.663 236.333 252.83C232.5 252.996 229.333 250.161 229.167 246.325C229.167 246.159 229.167 245.825 229.167 245.658V244.324H226.167V236.319Z" fill="#6FE9FF"/>
<path d="M173.333 285.517H163.667V295.357H173.333V285.517Z" fill="#6FE9FF"/>
<path d="M314.5 278.013V283.183H319.5L306 296.691V273.009L309.5 276.512L313.167 272.843L303.333 263.003L293.5 272.843L297.167 276.512L300.667 273.009V296.524L287.167 283.016H292V277.846H278.167V291.855H283.333V286.852L293.833 297.525H272.5L270.333 295.524L268.5 278.179C268.333 277.179 267.333 268.34 260 264.504H259.833L252.333 261.502L251.167 261.002L250 261.335C245.333 262.503 240.667 263.003 236 262.836C231.333 263.003 226.5 262.503 222 261.335L220.833 261.002L212.167 264.337H212C204.667 268.173 203.5 277.012 203.5 278.013L201.5 296.024L199.833 297.358H192.5C193.167 295.024 193.5 292.689 193.5 290.354C193.5 276.512 182.167 265.338 168.333 265.504C154.5 265.504 143.333 276.845 143.5 290.687C143.5 303.029 152.5 313.369 164.667 315.37H165C165.667 315.537 166.333 315.537 167 315.537L199.5 318.872C198.333 329.879 196.167 340.72 193 351.393L196.333 352.561L199.667 353.561C203 342.387 205.333 330.88 206.5 319.373L213.833 313.202L212.667 358.564L215.667 359.065C229.333 361.4 243.333 361.4 257.167 359.065L260.167 358.564L259 313.369L266.333 319.539C267.5 331.047 269.833 342.554 273.167 353.728L279.833 351.56C276.667 340.886 274.5 330.046 273.333 319.039L306 316.037V304.696L323.333 287.352V292.355H328.5V278.513L314.5 278.013ZM236 270.007C241 270.174 246 269.507 251 268.506L257 270.841C261 273.009 261.667 278.846 261.667 278.846L263.167 292.522H254.667C251.333 292.522 247.833 291.688 245 289.854C242.833 288.186 240.833 286.351 239.167 284.183L227.167 269.507C230.167 269.841 233.167 270.007 236 270.007ZM168.5 308.532H167.667L165.833 308.365C156 306.864 149.167 297.525 150.833 287.685C152.333 277.846 161.667 271.008 171.5 272.676C181.333 274.177 188.167 283.516 186.5 293.356C185 302.028 177.333 308.532 168.5 308.532ZM214 303.696L204 312.201L184 310.2C186 308.532 187.833 306.698 189.333 304.53H202.5L214.167 294.69L214 303.696ZM214.5 285.351L209.333 289.687L210.5 279.013V278.846C210.5 278.846 211 273.009 215.167 270.841L218.5 269.507L224.5 276.845L214.5 285.351ZM236.167 353.728C230.667 353.728 225.167 353.394 219.833 352.561L220.167 337.718L221.333 288.686L228.833 282.349L233.833 288.519C236 291.354 238.667 293.856 241.5 295.857C244.5 297.692 248 298.859 251.5 299.36L252.833 352.561C247.333 353.228 241.667 353.561 236.167 353.728ZM299 309.366L268.833 312.201L253.833 299.526H264.833L270.5 304.53H299.167L299 309.366Z" fill="#6FE9FF"/>
<path d="M439.146 318.524C458.746 318.524 474.733 302.746 474.733 276.449C474.733 251.029 458.746 235.47 439.146 235.47C419.436 235.47 403.449 251.029 403.449 276.449C403.449 302.746 419.436 318.524 439.146 318.524ZM439.146 309.32C425.349 309.32 413.632 298.363 413.632 276.449C413.632 254.535 424.911 244.674 439.146 244.674C453.271 244.674 464.55 254.535 464.55 276.449C464.55 298.363 452.833 309.32 439.146 309.32Z" fill="#6FE9FF"/>
<path d="M487.658 274.915C487.658 282.914 493.462 288.392 504.193 290.584L514.157 292.556C520.837 293.98 523.684 296.61 523.684 301.431C523.684 306.91 518.099 310.526 509.777 310.526C501.565 310.526 495.761 307.348 492.805 301.431L485.578 305.266C489.739 313.813 498.17 318.415 509.996 318.415C523.574 318.415 532.772 311.293 532.772 300.883C532.772 292.118 526.75 286.53 514.157 284.009L505.726 282.366C499.484 281.051 496.747 278.531 496.747 274.258C496.747 269.327 501.674 266.369 509.12 266.369C516.238 266.369 521.494 269.217 523.903 274.367L531.02 270.751C527.954 263.081 520.07 258.37 509.339 258.37C496.528 258.37 487.658 265.492 487.658 274.915Z" fill="#6FE9FF"/>
<path d="M567.539 317.319V309.211C566.334 309.539 565.13 309.649 564.035 309.649C559.436 309.649 556.698 307.238 556.698 302.198V236.456H547.281V302.636C547.281 312.06 551.99 318.086 561.845 318.086C563.816 318.086 565.568 317.757 567.539 317.319Z" fill="#6FE9FF"/>
<path d="M603.5 318.524C618.064 318.524 629.999 306.691 629.999 288.283C629.999 270.204 618.173 258.37 603.5 258.37C588.718 258.37 576.892 270.204 576.892 288.283C576.892 306.691 588.827 318.524 603.5 318.524ZM603.5 310.306C594.193 310.306 586.637 303.075 586.637 288.283C586.637 273.491 594.302 266.588 603.5 266.588C612.589 266.588 620.254 273.491 620.254 288.283C620.254 303.075 612.698 310.306 603.5 310.306Z" fill="#6FE9FF"/>
</svg>
